<svg width="18" height="18" viewBox="0 0 18 18" fill="none" xmlns="http://www.w3.org/2000/svg">
<circle cx="9" cy="9" r="9" fill="#505050"/>
<path d="M8.10204 11.8872V11.8241C8.10884 11.1546 8.17687 10.6217 8.30612 10.2256C8.43537 9.82951 8.61905 9.50876 8.85714 9.26338C9.09524 9.01801 9.38095 8.79191 9.71429 8.58509C9.91497 8.45889 10.0952 8.30991 10.2551 8.13814C10.415 7.96287 10.5408 7.76131 10.6327 7.53346C10.7279 7.30561 10.7755 7.05322 10.7755 6.77629C10.7755 6.43276 10.6973 6.1348 10.5408 5.88241C10.3844 5.63002 10.1752 5.43547 9.91327 5.29876C9.65136 5.16205 9.36054 5.09369 9.04082 5.09369C8.7619 5.09369 8.4932 5.15328 8.23469 5.27247C7.97619 5.39165 7.7602 5.57919 7.58673 5.83509C7.41327 6.09098 7.31293 6.42575 7.28571 6.83939H6C6.02721 6.24347 6.17687 5.73343 6.44898 5.30927C6.72449 4.88512 7.08673 4.56087 7.53571 4.33652C7.9881 4.11217 8.4898 4 9.04082 4C9.63946 4 10.1599 4.12269 10.602 4.36807C11.0476 4.61345 11.3912 4.94997 11.6327 5.37763C11.8776 5.80529 12 6.29254 12 6.83939C12 7.22498 11.9422 7.57377 11.8265 7.88576C11.7143 8.19774 11.551 8.47642 11.3367 8.7218C11.1259 8.96718 10.8707 9.18451 10.5714 9.37381C10.2721 9.5666 10.0323 9.76992 9.85204 9.98375C9.67177 10.1941 9.54082 10.4447 9.45918 10.7357C9.37755 11.0266 9.33333 11.3894 9.32653 11.8241V11.8872H8.10204ZM8.7551 15C8.5034 15 8.28742 14.9071 8.10714 14.7213C7.92687 14.5355 7.83673 14.3129 7.83673 14.0535C7.83673 13.7941 7.92687 13.5715 8.10714 13.3858C8.28742 13.2 8.5034 13.1071 8.7551 13.1071C9.0068 13.1071 9.22279 13.2 9.40306 13.3858C9.58333 13.5715 9.67347 13.7941 9.67347 14.0535C9.67347 14.2253 9.63095 14.383 9.54592 14.5268C9.46429 14.6705 9.35374 14.7862 9.21429 14.8738C9.07823 14.9579 8.92517 15 8.7551 15Z" fill="black"/>
</svg>
