<svg aria-hidden="true" style="position: absolute; width: 0; height: 0; overflow: hidden;" version="1.1" xmlns="http://www.w3.org/2000/svg" xmlns:xlink="http://www.w3.org/1999/xlink">
<defs>
<symbol id="icon-Mask-group" viewBox="0 0 116 32">
<path d="M-1.164 0h122.182v33.745h-122.182v-33.745z"></path>
</symbol>
<symbol id="icon-instagram" viewBox="0 0 32 32">
<path d="M16 2.881c4.275 0 4.781 0.019 6.463 0.094 1.562 0.069 2.406 0.331 2.969 0.55 0.744 0.288 1.281 0.637 1.838 1.194 0.562 0.563 0.906 1.094 1.194 1.837 0.219 0.563 0.481 1.412 0.55 2.969 0.075 1.688 0.094 2.194 0.094 6.463 0 4.275-0.019 4.781-0.094 6.463-0.069 1.562-0.331 2.406-0.55 2.969-0.288 0.744-0.638 1.281-1.194 1.838-0.563 0.562-1.094 0.906-1.838 1.194-0.562 0.219-1.412 0.481-2.969 0.55-1.688 0.075-2.194 0.094-6.463 0.094-4.275 0-4.781-0.019-6.463-0.094-1.563-0.069-2.406-0.331-2.969-0.55-0.744-0.288-1.281-0.638-1.838-1.194-0.563-0.563-0.906-1.094-1.194-1.838-0.219-0.562-0.481-1.412-0.55-2.969-0.075-1.688-0.094-2.194-0.094-6.463 0-4.275 0.019-4.781 0.094-6.463 0.069-1.563 0.331-2.406 0.55-2.969 0.288-0.744 0.638-1.281 1.194-1.838 0.563-0.563 1.094-0.906 1.838-1.194 0.563-0.219 1.412-0.481 2.969-0.55 1.681-0.075 2.188-0.094 6.463-0.094zM16 0c-4.344 0-4.887 0.019-6.594 0.094-1.7 0.075-2.869 0.35-3.881 0.744-1.056 0.412-1.95 0.956-2.837 1.85-0.894 0.888-1.438 1.781-1.85 2.831-0.394 1.019-0.669 2.181-0.744 3.881-0.075 1.713-0.094 2.256-0.094 6.6s0.019 4.888 0.094 6.594c0.075 1.7 0.35 2.869 0.744 3.881 0.413 1.056 0.956 1.95 1.85 2.837 0.887 0.888 1.781 1.438 2.831 1.844 1.019 0.394 2.181 0.669 3.881 0.744 1.706 0.075 2.25 0.094 6.594 0.094s4.888-0.019 6.594-0.094c1.7-0.075 2.869-0.35 3.881-0.744 1.050-0.406 1.944-0.956 2.831-1.844s1.437-1.781 1.844-2.831c0.394-1.019 0.669-2.181 0.744-3.881 0.075-1.706 0.094-2.25 0.094-6.594s-0.019-4.887-0.094-6.594c-0.075-1.7-0.35-2.869-0.744-3.881-0.394-1.063-0.937-1.956-1.831-2.844-0.888-0.887-1.781-1.438-2.831-1.844-1.019-0.394-2.181-0.669-3.881-0.744-1.712-0.081-2.256-0.1-6.6-0.1z"></path>
<path d="M16 7.781c-4.537 0-8.219 3.681-8.219 8.219s3.681 8.219 8.219 8.219c4.537 0 8.219-3.681 8.219-8.219s-3.681-8.219-8.219-8.219zM16 21.331c-2.944 0-5.331-2.388-5.331-5.331s2.387-5.331 5.331-5.331c2.944 0 5.331 2.387 5.331 5.331s-2.388 5.331-5.331 5.331z"></path>
<path d="M26.463 7.456c0 1.063-0.863 1.919-1.919 1.919-1.062 0-1.919-0.863-1.919-1.919 0-1.063 0.863-1.919 1.919-1.919s1.919 0.862 1.919 1.919z"></path>
</symbol>
<symbol id="icon-linkedin" viewBox="0 0 32 32">
<path d="M29.631 0h-27.269c-1.306 0-2.362 1.031-2.362 2.306v27.381c0 1.275 1.056 2.312 2.362 2.312h27.269c1.306 0 2.369-1.037 2.369-2.306v-27.387c0-1.275-1.063-2.306-2.369-2.306zM9.494 27.269h-4.75v-15.275h4.75v15.275zM7.119 9.912c-1.525 0-2.756-1.231-2.756-2.75s1.231-2.75 2.756-2.75c1.519 0 2.75 1.231 2.75 2.75 0 1.512-1.231 2.75-2.75 2.75zM27.269 27.269h-4.744v-7.425c0-1.769-0.031-4.050-2.469-4.050-2.469 0-2.844 1.931-2.844 3.925v7.55h-4.737v-15.275h4.55v2.088h0.063c0.631-1.2 2.181-2.469 4.488-2.469 4.806 0 5.694 3.162 5.694 7.275v8.381z"></path>
</symbol>
<symbol id="icon-facebook" viewBox="0 0 32 32">
<path d="M32 16c0-8.837-7.163-16-16-16s-16 7.163-16 16c0 7.986 5.851 14.605 13.5 15.806v-11.181h-4.063v-4.625h4.063v-3.525c0-4.010 2.389-6.225 6.043-6.225 1.75 0 3.582 0.313 3.582 0.313v3.938h-2.017c-1.988 0-2.608 1.233-2.608 2.5v3h4.437l-0.709 4.625h-3.728v11.181c7.649-1.2 13.5-7.82 13.5-15.806z"></path>
</symbol>
<symbol id="icon-logo" viewBox="0 0 119 32">
<path d="M-1.185 0h124.444v34.37h-124.444v-34.37z"></path>
</symbol>
<symbol id="icon-user-button" viewBox="0 0 32 32">
<path stroke-linejoin="miter" stroke-linecap="round" stroke-miterlimit="4" stroke-width="3.2" d="M26.303 27.263c-0.608-1.701-1.947-3.204-3.81-4.276s-4.145-1.653-6.493-1.653c-2.348 0-4.631 0.581-6.493 1.653s-3.202 2.575-3.81 4.276"></path>
<path stroke-linejoin="miter" stroke-linecap="round" stroke-miterlimit="4" stroke-width="3.2" d="M21.333 10.667c0 2.946-2.388 5.333-5.333 5.333s-5.333-2.388-5.333-5.333c0-2.946 2.388-5.333 5.333-5.333s5.333 2.388 5.333 5.333z"></path>
</symbol>
<symbol id="icon-close-button" viewBox="0 0 32 32">
<path d="M1.331 27.951l26.62-26.62c0.735-0.735 1.927-0.735 2.662 0l0.002 0.002c0.735 0.735 0.735 1.927 0 2.662l-26.62 26.62c-0.735 0.735-1.927 0.735-2.662 0l-0.002-0.002c-0.735-0.735-0.735-1.927 0-2.662z"></path>
<path d="M3.995 1.331l26.62 26.62c0.735 0.735 0.735 1.927 0 2.662l-0.002 0.002c-0.735 0.735-1.927 0.735-2.662 0l-26.62-26.62c-0.735-0.735-0.735-1.927 0-2.662l0.002-0.002c0.735-0.735 1.927-0.735 2.662 0z"></path>
</symbol>
<symbol id="icon-open-button" viewBox="0 0 41 32">
<path d="M1.882 0h37.647c1.040 0 1.882 0.843 1.882 1.882v0.801c0 1.040-0.843 1.882-1.882 1.882h-37.647c-1.040 0-1.882-0.843-1.882-1.882v-0.801c0-1.040 0.843-1.882 1.882-1.882z"></path>
<path d="M1.882 13.717h37.647c1.040 0 1.882 0.843 1.882 1.882v0.801c0 1.040-0.843 1.882-1.882 1.882h-37.647c-1.040 0-1.882-0.843-1.882-1.882v-0.801c0-1.040 0.843-1.882 1.882-1.882z"></path>
<path d="M1.882 27.434h37.647c1.040 0 1.882 0.843 1.882 1.882v0.801c0 1.040-0.843 1.882-1.882 1.882h-37.647c-1.040 0-1.882-0.843-1.882-1.882v-0.801c0-1.040 0.843-1.882 1.882-1.882z"></path>
</symbol>
<symbol id="icon-down"  viewBox="0 0 44 32">
<path d="M38.334 0l-16.457 17.151-16.457-17.151-5.42 5.649 21.877 22.8 21.877-22.8-5.42-5.649z"></path>
</symbol>
<symbol id="icon-form-qm" viewBox="0 0 32 32">
<path fill="#505050" style="fill: var(--color1, #505050)" d="M32 16c0 8.837-7.163 16-16 16s-16-7.163-16-16c0-8.837 7.163-16 16-16s16 7.163 16 16z"></path>
<path fill="#000" style="fill: var(--color2, #000)" d="M14.404 21.133v-0.112c0.012-1.19 0.133-2.138 0.363-2.842s0.556-1.274 0.98-1.711c0.423-0.436 0.931-0.838 1.524-1.206 0.357-0.224 0.677-0.489 0.961-0.795 0.284-0.312 0.508-0.67 0.671-1.075 0.169-0.405 0.254-0.854 0.254-1.346 0-0.611-0.139-1.14-0.417-1.589s-0.65-0.795-1.116-1.038c-0.466-0.243-0.983-0.365-1.551-0.365-0.496 0-0.974 0.106-1.433 0.318s-0.844 0.545-1.152 1c-0.308 0.455-0.487 1.050-0.535 1.785h-2.286c0.048-1.059 0.314-1.966 0.798-2.72 0.49-0.754 1.134-1.331 1.932-1.729 0.804-0.399 1.696-0.598 2.676-0.598 1.064 0 1.989 0.218 2.775 0.654 0.792 0.436 1.403 1.035 1.832 1.795 0.435 0.76 0.653 1.627 0.653 2.599 0 0.685-0.103 1.306-0.308 1.86-0.199 0.555-0.49 1.050-0.871 1.486-0.375 0.436-0.828 0.823-1.361 1.159-0.532 0.343-0.958 0.704-1.279 1.084-0.32 0.374-0.553 0.819-0.698 1.337s-0.224 1.162-0.236 1.935v0.112h-2.177zM15.565 26.667c-0.447 0-0.831-0.165-1.152-0.495s-0.481-0.726-0.481-1.187c0-0.461 0.16-0.857 0.481-1.187s0.704-0.495 1.152-0.495 0.831 0.165 1.152 0.495c0.32 0.33 0.481 0.726 0.481 1.187 0 0.305-0.076 0.586-0.227 0.841-0.145 0.255-0.342 0.461-0.59 0.617-0.242 0.149-0.514 0.224-0.816 0.224z"></path>
</symbol>
<symbol id="icon-check" viewBox="0 0 32 32">
<path stroke-linejoin="miter" stroke-linecap="butt" stroke-miterlimit="4" stroke-width="1.6" d="M28 16c0 6.627-5.373 12-12 12s-12-5.373-12-12c0-6.627 5.373-12 12-12s12 5.373 12 12z"></path>
<path stroke-linejoin="miter" stroke-linecap="butt" stroke-miterlimit="4" stroke-width="1.6" d="M10.667 16l4 4 6.667-8"></path>
</symbol>
</defs>
</svg>
